<mxfile host="Electron" agent="Mozilla/5.0 (Windows NT 10.0; Win64; x64) AppleWebKit/537.36 (KHTML, like Gecko) draw.io/28.0.6 Chrome/138.0.7204.100 Electron/37.2.3 Safari/537.36" version="28.0.6">
  <diagram id="Ed7Fp6j8nTT34SJuMQD4" name="Page-1">
    <mxGraphModel dx="1426" dy="1241" grid="1" gridSize="10" guides="1" tooltips="1" connect="1" arrows="1" fold="1" page="0" pageScale="1" pageWidth="850" pageHeight="1100" math="0" shadow="0">
      <root>
        <mxCell id="0" />
        <mxCell id="1" parent="0" />
        <mxCell id="zSWxMQrpxyv_SVmGaGA--203" value="" style="whiteSpace=wrap;html=1;shape=mxgraph.basic.isocube;isoAngle=15;fillColor=#dae8fc;strokeColor=#6c8ebf;" parent="1" vertex="1">
          <mxGeometry x="565" y="174" width="70" height="40" as="geometry" />
        </mxCell>
        <mxCell id="zSWxMQrpxyv_SVmGaGA--202" value="" style="whiteSpace=wrap;html=1;shape=mxgraph.basic.isocube;isoAngle=15;fillColor=#dae8fc;strokeColor=#6c8ebf;" parent="1" vertex="1">
          <mxGeometry x="255" y="123" width="70" height="40" as="geometry" />
        </mxCell>
        <mxCell id="zSWxMQrpxyv_SVmGaGA--1" value="" style="rounded=0;whiteSpace=wrap;html=1;" parent="1" vertex="1">
          <mxGeometry x="150" y="40" width="330" height="80" as="geometry" />
        </mxCell>
        <mxCell id="zSWxMQrpxyv_SVmGaGA--3" value="" style="shape=step;perimeter=stepPerimeter;whiteSpace=wrap;html=1;fixedSize=1;" parent="1" vertex="1">
          <mxGeometry x="490" y="40" width="70" height="80" as="geometry" />
        </mxCell>
        <mxCell id="zSWxMQrpxyv_SVmGaGA--6" value="" style="rounded=0;whiteSpace=wrap;html=1;fillColor=#f8cecc;strokeColor=#b85450;" parent="1" vertex="1">
          <mxGeometry x="200" y="80" width="40" height="40" as="geometry" />
        </mxCell>
        <mxCell id="zSWxMQrpxyv_SVmGaGA--7" value="" style="rounded=0;whiteSpace=wrap;html=1;fillColor=#f8cecc;strokeColor=#b85450;" parent="1" vertex="1">
          <mxGeometry x="200" y="40" width="40" height="40" as="geometry" />
        </mxCell>
        <mxCell id="zSWxMQrpxyv_SVmGaGA--8" value="" style="rounded=0;whiteSpace=wrap;html=1;fillColor=#f8cecc;strokeColor=#b85450;" parent="1" vertex="1">
          <mxGeometry x="240" y="80" width="40" height="40" as="geometry" />
        </mxCell>
        <mxCell id="zSWxMQrpxyv_SVmGaGA--9" value="" style="rounded=0;whiteSpace=wrap;html=1;fillColor=#f8cecc;strokeColor=#b85450;" parent="1" vertex="1">
          <mxGeometry x="240" y="40" width="40" height="40" as="geometry" />
        </mxCell>
        <mxCell id="zSWxMQrpxyv_SVmGaGA--10" value="" style="rounded=0;whiteSpace=wrap;html=1;fillColor=#f8cecc;strokeColor=#b85450;" parent="1" vertex="1">
          <mxGeometry x="280" y="80" width="40" height="40" as="geometry" />
        </mxCell>
        <mxCell id="zSWxMQrpxyv_SVmGaGA--11" value="" style="rounded=0;whiteSpace=wrap;html=1;fillColor=#f8cecc;strokeColor=#b85450;" parent="1" vertex="1">
          <mxGeometry x="280" y="40" width="40" height="40" as="geometry" />
        </mxCell>
        <mxCell id="zSWxMQrpxyv_SVmGaGA--12" value="" style="rounded=0;whiteSpace=wrap;html=1;fillColor=#f8cecc;strokeColor=#b85450;" parent="1" vertex="1">
          <mxGeometry x="320" y="80" width="40" height="40" as="geometry" />
        </mxCell>
        <mxCell id="zSWxMQrpxyv_SVmGaGA--13" value="" style="rounded=0;whiteSpace=wrap;html=1;fillColor=#f8cecc;strokeColor=#b85450;" parent="1" vertex="1">
          <mxGeometry x="320" y="40" width="40" height="40" as="geometry" />
        </mxCell>
        <mxCell id="zSWxMQrpxyv_SVmGaGA--14" value="" style="rounded=0;whiteSpace=wrap;html=1;fillColor=#f8cecc;strokeColor=#b85450;" parent="1" vertex="1">
          <mxGeometry x="360" y="80" width="40" height="40" as="geometry" />
        </mxCell>
        <mxCell id="zSWxMQrpxyv_SVmGaGA--15" value="" style="rounded=0;whiteSpace=wrap;html=1;fillColor=#f8cecc;strokeColor=#b85450;" parent="1" vertex="1">
          <mxGeometry x="360" y="40" width="40" height="40" as="geometry" />
        </mxCell>
        <mxCell id="zSWxMQrpxyv_SVmGaGA--26" value="" style="shape=step;perimeter=stepPerimeter;whiteSpace=wrap;html=1;fixedSize=1;" parent="1" vertex="1">
          <mxGeometry x="70" y="40" width="70" height="80" as="geometry" />
        </mxCell>
        <mxCell id="zSWxMQrpxyv_SVmGaGA--27" value="pm" style="rounded=0;whiteSpace=wrap;html=1;fillColor=#d5e8d4;strokeColor=#82b366;glass=0;" parent="1" vertex="1">
          <mxGeometry x="200" y="-70" width="40" height="40" as="geometry" />
        </mxCell>
        <mxCell id="zSWxMQrpxyv_SVmGaGA--28" value="am" style="rounded=0;whiteSpace=wrap;html=1;fillColor=#d5e8d4;strokeColor=#82b366;glass=0;" parent="1" vertex="1">
          <mxGeometry x="200" y="-110" width="40" height="40" as="geometry" />
        </mxCell>
        <mxCell id="zSWxMQrpxyv_SVmGaGA--29" value="" style="rounded=0;whiteSpace=wrap;html=1;fillColor=#d5e8d4;strokeColor=#82b366;glass=0;" parent="1" vertex="1">
          <mxGeometry x="240" y="-70" width="40" height="40" as="geometry" />
        </mxCell>
        <mxCell id="zSWxMQrpxyv_SVmGaGA--30" value="" style="rounded=0;whiteSpace=wrap;html=1;fillColor=#d5e8d4;strokeColor=#82b366;glass=0;" parent="1" vertex="1">
          <mxGeometry x="240" y="-110" width="40" height="40" as="geometry" />
        </mxCell>
        <mxCell id="zSWxMQrpxyv_SVmGaGA--31" value="am" style="rounded=0;whiteSpace=wrap;html=1;fillColor=#d5e8d4;strokeColor=#82b366;glass=0;" parent="1" vertex="1">
          <mxGeometry x="280" y="-110" width="40" height="40" as="geometry" />
        </mxCell>
        <mxCell id="zSWxMQrpxyv_SVmGaGA--32" value="pm" style="rounded=0;whiteSpace=wrap;html=1;fillColor=#dae8fc;strokeColor=#6c8ebf;glass=0;" parent="1" vertex="1">
          <mxGeometry x="280" y="-70" width="40" height="40" as="geometry" />
        </mxCell>
        <mxCell id="zSWxMQrpxyv_SVmGaGA--33" value="" style="rounded=0;whiteSpace=wrap;html=1;fillColor=#dae8fc;strokeColor=#6c8ebf;glass=0;" parent="1" vertex="1">
          <mxGeometry x="320" y="-70" width="40" height="40" as="geometry" />
        </mxCell>
        <mxCell id="zSWxMQrpxyv_SVmGaGA--34" value="" style="rounded=0;whiteSpace=wrap;html=1;fillColor=#dae8fc;strokeColor=#6c8ebf;glass=0;" parent="1" vertex="1">
          <mxGeometry x="320" y="-110" width="40" height="40" as="geometry" />
        </mxCell>
        <mxCell id="zSWxMQrpxyv_SVmGaGA--35" value="" style="rounded=0;whiteSpace=wrap;html=1;fillColor=#dae8fc;strokeColor=#6c8ebf;glass=0;" parent="1" vertex="1">
          <mxGeometry x="360" y="-70" width="40" height="40" as="geometry" />
        </mxCell>
        <mxCell id="zSWxMQrpxyv_SVmGaGA--36" value="" style="rounded=0;whiteSpace=wrap;html=1;fillColor=#dae8fc;strokeColor=#6c8ebf;glass=0;" parent="1" vertex="1">
          <mxGeometry x="360" y="-110" width="40" height="40" as="geometry" />
        </mxCell>
        <mxCell id="zSWxMQrpxyv_SVmGaGA--47" value="" style="whiteSpace=wrap;html=1;shape=mxgraph.basic.isocube;isoAngle=15;fillColor=#f8cecc;strokeColor=#b85450;" parent="1" vertex="1">
          <mxGeometry x="220" y="290" width="70" height="40" as="geometry" />
        </mxCell>
        <mxCell id="zSWxMQrpxyv_SVmGaGA--48" value="" style="whiteSpace=wrap;html=1;shape=mxgraph.basic.isocube;isoAngle=15;fillColor=#f8cecc;strokeColor=#b85450;" parent="1" vertex="1">
          <mxGeometry x="255" y="307" width="70" height="40" as="geometry" />
        </mxCell>
        <mxCell id="zSWxMQrpxyv_SVmGaGA--49" value="" style="whiteSpace=wrap;html=1;shape=mxgraph.basic.isocube;isoAngle=15;fillColor=#f8cecc;strokeColor=#b85450;" parent="1" vertex="1">
          <mxGeometry x="185" y="307" width="70" height="40" as="geometry" />
        </mxCell>
        <mxCell id="zSWxMQrpxyv_SVmGaGA--50" value="" style="whiteSpace=wrap;html=1;shape=mxgraph.basic.isocube;isoAngle=15;fillColor=#f8cecc;strokeColor=#b85450;" parent="1" vertex="1">
          <mxGeometry x="220" y="324" width="70" height="40" as="geometry" />
        </mxCell>
        <mxCell id="zSWxMQrpxyv_SVmGaGA--51" value="" style="whiteSpace=wrap;html=1;shape=mxgraph.basic.isocube;isoAngle=15;fillColor=#f8cecc;strokeColor=#b85450;" parent="1" vertex="1">
          <mxGeometry x="150" y="324" width="70" height="40" as="geometry" />
        </mxCell>
        <mxCell id="zSWxMQrpxyv_SVmGaGA--52" value="" style="whiteSpace=wrap;html=1;shape=mxgraph.basic.isocube;isoAngle=15;fillColor=#f8cecc;strokeColor=#b85450;" parent="1" vertex="1">
          <mxGeometry x="185" y="341" width="70" height="40" as="geometry" />
        </mxCell>
        <mxCell id="zSWxMQrpxyv_SVmGaGA--53" value="" style="whiteSpace=wrap;html=1;shape=mxgraph.basic.isocube;isoAngle=15;fillColor=#f8cecc;strokeColor=#b85450;" parent="1" vertex="1">
          <mxGeometry x="115" y="341" width="70" height="40" as="geometry" />
        </mxCell>
        <mxCell id="zSWxMQrpxyv_SVmGaGA--54" value="" style="whiteSpace=wrap;html=1;shape=mxgraph.basic.isocube;isoAngle=15;fillColor=#f8cecc;strokeColor=#b85450;" parent="1" vertex="1">
          <mxGeometry x="150" y="358" width="70" height="40" as="geometry" />
        </mxCell>
        <mxCell id="zSWxMQrpxyv_SVmGaGA--55" value="" style="whiteSpace=wrap;html=1;shape=mxgraph.basic.isocube;isoAngle=15;fillColor=#f8cecc;strokeColor=#b85450;" parent="1" vertex="1">
          <mxGeometry x="80" y="358" width="70" height="40" as="geometry" />
        </mxCell>
        <mxCell id="zSWxMQrpxyv_SVmGaGA--56" value="" style="whiteSpace=wrap;html=1;shape=mxgraph.basic.isocube;isoAngle=15;fillColor=#f8cecc;strokeColor=#b85450;" parent="1" vertex="1">
          <mxGeometry x="115" y="375" width="70" height="40" as="geometry" />
        </mxCell>
        <mxCell id="zSWxMQrpxyv_SVmGaGA--59" value="" style="whiteSpace=wrap;html=1;shape=mxgraph.basic.isocube;isoAngle=15;fillColor=#dae8fc;strokeColor=#6c8ebf;" parent="1" vertex="1">
          <mxGeometry x="220" y="140" width="70" height="40" as="geometry" />
        </mxCell>
        <mxCell id="zSWxMQrpxyv_SVmGaGA--60" value="" style="whiteSpace=wrap;html=1;shape=mxgraph.basic.isocube;isoAngle=15;fillColor=#dae8fc;strokeColor=#6c8ebf;" parent="1" vertex="1">
          <mxGeometry x="255" y="157" width="70" height="40" as="geometry" />
        </mxCell>
        <mxCell id="zSWxMQrpxyv_SVmGaGA--61" value="" style="whiteSpace=wrap;html=1;shape=mxgraph.basic.isocube;isoAngle=15;fillColor=#dae8fc;strokeColor=#6c8ebf;" parent="1" vertex="1">
          <mxGeometry x="185" y="157" width="70" height="40" as="geometry" />
        </mxCell>
        <mxCell id="zSWxMQrpxyv_SVmGaGA--62" value="" style="whiteSpace=wrap;html=1;shape=mxgraph.basic.isocube;isoAngle=15;fillColor=#dae8fc;strokeColor=#6c8ebf;" parent="1" vertex="1">
          <mxGeometry x="220" y="174" width="70" height="40" as="geometry" />
        </mxCell>
        <mxCell id="zSWxMQrpxyv_SVmGaGA--63" value="pm" style="whiteSpace=wrap;html=1;shape=mxgraph.basic.isocube;isoAngle=15;fillColor=#dae8fc;strokeColor=#6c8ebf;" parent="1" vertex="1">
          <mxGeometry x="185" y="190.5" width="70" height="40" as="geometry" />
        </mxCell>
        <mxCell id="zSWxMQrpxyv_SVmGaGA--64" value="am" style="whiteSpace=wrap;html=1;shape=mxgraph.basic.isocube;isoAngle=15;fillColor=#d5e8d4;strokeColor=#82b366;" parent="1" vertex="1">
          <mxGeometry x="150" y="224.5" width="70" height="40" as="geometry" />
        </mxCell>
        <mxCell id="zSWxMQrpxyv_SVmGaGA--65" value="" style="whiteSpace=wrap;html=1;shape=mxgraph.basic.isocube;isoAngle=15;fillColor=#d5e8d4;strokeColor=#82b366;" parent="1" vertex="1">
          <mxGeometry x="115" y="241" width="70" height="40" as="geometry" />
        </mxCell>
        <mxCell id="zSWxMQrpxyv_SVmGaGA--66" value="" style="whiteSpace=wrap;html=1;shape=mxgraph.basic.isocube;isoAngle=15;fillColor=#d5e8d4;strokeColor=#82b366;" parent="1" vertex="1">
          <mxGeometry x="150" y="258" width="70" height="40" as="geometry" />
        </mxCell>
        <mxCell id="zSWxMQrpxyv_SVmGaGA--67" value="am" style="whiteSpace=wrap;html=1;shape=mxgraph.basic.isocube;isoAngle=15;fillColor=#d5e8d4;strokeColor=#82b366;" parent="1" vertex="1">
          <mxGeometry x="80" y="258" width="70" height="40" as="geometry" />
        </mxCell>
        <mxCell id="zSWxMQrpxyv_SVmGaGA--68" value="pm" style="whiteSpace=wrap;html=1;shape=mxgraph.basic.isocube;isoAngle=15;fillColor=#d5e8d4;strokeColor=#82b366;" parent="1" vertex="1">
          <mxGeometry x="115" y="275" width="70" height="40" as="geometry" />
        </mxCell>
        <mxCell id="zSWxMQrpxyv_SVmGaGA--71" value="" style="shape=flexArrow;endArrow=classic;html=1;rounded=0;fillColor=default;gradientColor=default;" parent="1" edge="1">
          <mxGeometry width="50" height="50" relative="1" as="geometry">
            <mxPoint x="160" y="320" as="sourcePoint" />
            <mxPoint x="160" y="360" as="targetPoint" />
          </mxGeometry>
        </mxCell>
        <mxCell id="zSWxMQrpxyv_SVmGaGA--72" value="" style="shape=flexArrow;endArrow=classic;html=1;rounded=0;fillColor=default;gradientColor=default;" parent="1" edge="1">
          <mxGeometry width="50" height="50" relative="1" as="geometry">
            <mxPoint x="279.43" y="207.5" as="sourcePoint" />
            <mxPoint x="279.43" y="247.5" as="targetPoint" />
          </mxGeometry>
        </mxCell>
        <mxCell id="zSWxMQrpxyv_SVmGaGA--73" value="" style="whiteSpace=wrap;html=1;shape=mxgraph.basic.isocube;isoAngle=15;fillColor=#f8cecc;strokeColor=#b85450;" parent="1" vertex="1">
          <mxGeometry x="530" y="199" width="70" height="40" as="geometry" />
        </mxCell>
        <mxCell id="zSWxMQrpxyv_SVmGaGA--74" value="" style="whiteSpace=wrap;html=1;shape=mxgraph.basic.isocube;isoAngle=15;fillColor=#f8cecc;strokeColor=#b85450;" parent="1" vertex="1">
          <mxGeometry x="565" y="216" width="70" height="40" as="geometry" />
        </mxCell>
        <mxCell id="zSWxMQrpxyv_SVmGaGA--75" value="" style="whiteSpace=wrap;html=1;shape=mxgraph.basic.isocube;isoAngle=15;fillColor=#f8cecc;strokeColor=#b85450;" parent="1" vertex="1">
          <mxGeometry x="495" y="216" width="70" height="40" as="geometry" />
        </mxCell>
        <mxCell id="zSWxMQrpxyv_SVmGaGA--76" value="" style="whiteSpace=wrap;html=1;shape=mxgraph.basic.isocube;isoAngle=15;fillColor=#f8cecc;strokeColor=#b85450;" parent="1" vertex="1">
          <mxGeometry x="530" y="233" width="70" height="40" as="geometry" />
        </mxCell>
        <mxCell id="zSWxMQrpxyv_SVmGaGA--77" value="" style="whiteSpace=wrap;html=1;shape=mxgraph.basic.isocube;isoAngle=15;fillColor=#f8cecc;strokeColor=#b85450;" parent="1" vertex="1">
          <mxGeometry x="460" y="233" width="70" height="40" as="geometry" />
        </mxCell>
        <mxCell id="zSWxMQrpxyv_SVmGaGA--78" value="" style="whiteSpace=wrap;html=1;shape=mxgraph.basic.isocube;isoAngle=15;fillColor=#f8cecc;strokeColor=#b85450;" parent="1" vertex="1">
          <mxGeometry x="495" y="250" width="70" height="40" as="geometry" />
        </mxCell>
        <mxCell id="zSWxMQrpxyv_SVmGaGA--79" value="" style="whiteSpace=wrap;html=1;shape=mxgraph.basic.isocube;isoAngle=15;fillColor=#f8cecc;strokeColor=#b85450;" parent="1" vertex="1">
          <mxGeometry x="425" y="250" width="70" height="40" as="geometry" />
        </mxCell>
        <mxCell id="zSWxMQrpxyv_SVmGaGA--80" value="" style="whiteSpace=wrap;html=1;shape=mxgraph.basic.isocube;isoAngle=15;fillColor=#f8cecc;strokeColor=#b85450;" parent="1" vertex="1">
          <mxGeometry x="460" y="267" width="70" height="40" as="geometry" />
        </mxCell>
        <mxCell id="zSWxMQrpxyv_SVmGaGA--81" value="" style="whiteSpace=wrap;html=1;shape=mxgraph.basic.isocube;isoAngle=15;fillColor=#f8cecc;strokeColor=#b85450;" parent="1" vertex="1">
          <mxGeometry x="390" y="267" width="70" height="40" as="geometry" />
        </mxCell>
        <mxCell id="zSWxMQrpxyv_SVmGaGA--82" value="" style="whiteSpace=wrap;html=1;shape=mxgraph.basic.isocube;isoAngle=15;fillColor=#f8cecc;strokeColor=#b85450;" parent="1" vertex="1">
          <mxGeometry x="425" y="284" width="70" height="40" as="geometry" />
        </mxCell>
        <mxCell id="zSWxMQrpxyv_SVmGaGA--83" value="" style="whiteSpace=wrap;html=1;shape=mxgraph.basic.isocube;isoAngle=15;fillColor=#dae8fc;strokeColor=#6c8ebf;" parent="1" vertex="1">
          <mxGeometry x="530" y="190.5" width="70" height="40" as="geometry" />
        </mxCell>
        <mxCell id="zSWxMQrpxyv_SVmGaGA--84" value="" style="whiteSpace=wrap;html=1;shape=mxgraph.basic.isocube;isoAngle=15;fillColor=#dae8fc;strokeColor=#6c8ebf;" parent="1" vertex="1">
          <mxGeometry x="565" y="207.5" width="70" height="40" as="geometry" />
        </mxCell>
        <mxCell id="zSWxMQrpxyv_SVmGaGA--85" value="" style="whiteSpace=wrap;html=1;shape=mxgraph.basic.isocube;isoAngle=15;fillColor=#dae8fc;strokeColor=#6c8ebf;" parent="1" vertex="1">
          <mxGeometry x="495" y="207.5" width="70" height="40" as="geometry" />
        </mxCell>
        <mxCell id="zSWxMQrpxyv_SVmGaGA--86" value="" style="whiteSpace=wrap;html=1;shape=mxgraph.basic.isocube;isoAngle=15;fillColor=#dae8fc;strokeColor=#6c8ebf;" parent="1" vertex="1">
          <mxGeometry x="530" y="224.5" width="70" height="40" as="geometry" />
        </mxCell>
        <mxCell id="zSWxMQrpxyv_SVmGaGA--88" value="" style="whiteSpace=wrap;html=1;shape=mxgraph.basic.isocube;isoAngle=15;fillColor=#d5e8d4;strokeColor=#82b366;" parent="1" vertex="1">
          <mxGeometry x="460" y="224.5" width="70" height="40" as="geometry" />
        </mxCell>
        <mxCell id="zSWxMQrpxyv_SVmGaGA--89" value="" style="whiteSpace=wrap;html=1;shape=mxgraph.basic.isocube;isoAngle=15;fillColor=#d5e8d4;strokeColor=#82b366;" parent="1" vertex="1">
          <mxGeometry x="425" y="241.5" width="70" height="40" as="geometry" />
        </mxCell>
        <mxCell id="zSWxMQrpxyv_SVmGaGA--91" value="" style="whiteSpace=wrap;html=1;shape=mxgraph.basic.isocube;isoAngle=15;fillColor=#d5e8d4;strokeColor=#82b366;" parent="1" vertex="1">
          <mxGeometry x="390" y="258.5" width="70" height="40" as="geometry" />
        </mxCell>
        <mxCell id="zSWxMQrpxyv_SVmGaGA--95" value="" style="shape=flexArrow;endArrow=classic;html=1;rounded=0;fillColor=default;gradientColor=default;" parent="1" edge="1">
          <mxGeometry width="50" height="50" relative="1" as="geometry">
            <mxPoint x="300" y="290" as="sourcePoint" />
            <mxPoint x="370" y="290" as="targetPoint" />
          </mxGeometry>
        </mxCell>
        <mxCell id="zSWxMQrpxyv_SVmGaGA--96" value="" style="shape=flexArrow;endArrow=classic;html=1;rounded=0;fillColor=default;strokeColor=#6c8ebf;gradientColor=none;" parent="1" edge="1">
          <mxGeometry width="50" height="50" relative="1" as="geometry">
            <mxPoint x="359.99999999999994" y="-20" as="sourcePoint" />
            <mxPoint x="359.99999999999994" y="20" as="targetPoint" />
          </mxGeometry>
        </mxCell>
        <mxCell id="zSWxMQrpxyv_SVmGaGA--99" value="SL2" style="edgeLabel;html=1;align=center;verticalAlign=middle;resizable=0;points=[];" parent="zSWxMQrpxyv_SVmGaGA--96" vertex="1" connectable="0">
          <mxGeometry x="-0.16" y="4" relative="1" as="geometry">
            <mxPoint y="-7" as="offset" />
          </mxGeometry>
        </mxCell>
        <mxCell id="zSWxMQrpxyv_SVmGaGA--97" value="" style="shape=flexArrow;endArrow=classic;html=1;rounded=0;fillColor=default;strokeColor=#82b366;" parent="1" edge="1">
          <mxGeometry width="50" height="50" relative="1" as="geometry">
            <mxPoint x="259.8" y="-20" as="sourcePoint" />
            <mxPoint x="259.8" y="20" as="targetPoint" />
          </mxGeometry>
        </mxCell>
        <mxCell id="zSWxMQrpxyv_SVmGaGA--98" value="SL1" style="edgeLabel;html=1;align=center;verticalAlign=middle;resizable=0;points=[];" parent="zSWxMQrpxyv_SVmGaGA--97" vertex="1" connectable="0">
          <mxGeometry x="-0.4" y="4" relative="1" as="geometry">
            <mxPoint as="offset" />
          </mxGeometry>
        </mxCell>
        <mxCell id="zSWxMQrpxyv_SVmGaGA--100" value="" style="verticalLabelPosition=bottom;verticalAlign=top;html=1;shape=mxgraph.basic.rect;fillColor2=none;strokeWidth=2;size=20;indent=5;rounded=0;glass=1;fillColor=none;strokeColor=#FF0505;" parent="1" vertex="1">
          <mxGeometry x="200" y="40" width="200" height="80" as="geometry" />
        </mxCell>
        <mxCell id="zSWxMQrpxyv_SVmGaGA--101" value="An absence&lt;br&gt;formed by 10 sessions" style="text;html=1;strokeColor=none;fillColor=none;align=center;verticalAlign=middle;whiteSpace=wrap;rounded=0;glass=1;" parent="1" vertex="1">
          <mxGeometry x="210" y="50" width="180" height="60" as="geometry" />
        </mxCell>
        <mxCell id="zSWxMQrpxyv_SVmGaGA--87" value="" style="whiteSpace=wrap;html=1;shape=mxgraph.basic.isocube;isoAngle=15;fillColor=#dae8fc;strokeColor=#6c8ebf;" parent="1" vertex="1">
          <mxGeometry x="495" y="241" width="70" height="40" as="geometry" />
        </mxCell>
        <mxCell id="zSWxMQrpxyv_SVmGaGA--90" value="" style="whiteSpace=wrap;html=1;shape=mxgraph.basic.isocube;isoAngle=15;fillColor=#d5e8d4;strokeColor=#82b366;" parent="1" vertex="1">
          <mxGeometry x="460" y="258.5" width="70" height="40" as="geometry" />
        </mxCell>
        <mxCell id="zSWxMQrpxyv_SVmGaGA--92" value="" style="whiteSpace=wrap;html=1;shape=mxgraph.basic.isocube;isoAngle=15;fillColor=#d5e8d4;strokeColor=#82b366;" parent="1" vertex="1">
          <mxGeometry x="425" y="275.5" width="70" height="40" as="geometry" />
        </mxCell>
        <mxCell id="zSWxMQrpxyv_SVmGaGA--107" style="edgeStyle=orthogonalEdgeStyle;rounded=0;orthogonalLoop=1;jettySize=auto;html=1;exitX=1;exitY=0.5;exitDx=0;exitDy=0;" parent="1" source="zSWxMQrpxyv_SVmGaGA--103" target="zSWxMQrpxyv_SVmGaGA--83" edge="1">
          <mxGeometry relative="1" as="geometry">
            <Array as="points">
              <mxPoint x="530" y="161" />
            </Array>
          </mxGeometry>
        </mxCell>
        <mxCell id="zSWxMQrpxyv_SVmGaGA--108" style="edgeStyle=orthogonalEdgeStyle;rounded=0;orthogonalLoop=1;jettySize=auto;html=1;entryX=0.841;entryY=0.382;entryDx=0;entryDy=0;entryPerimeter=0;" parent="1" source="zSWxMQrpxyv_SVmGaGA--103" target="zSWxMQrpxyv_SVmGaGA--60" edge="1">
          <mxGeometry relative="1" as="geometry">
            <Array as="points">
              <mxPoint x="314" y="160" />
            </Array>
          </mxGeometry>
        </mxCell>
        <mxCell id="zSWxMQrpxyv_SVmGaGA--103" value="SL2" style="rounded=1;whiteSpace=wrap;html=1;glass=0;strokeColor=#6c8ebf;strokeWidth=2;fillColor=#dae8fc;" parent="1" vertex="1">
          <mxGeometry x="400" y="140" width="90" height="41" as="geometry" />
        </mxCell>
        <mxCell id="zSWxMQrpxyv_SVmGaGA--105" style="edgeStyle=orthogonalEdgeStyle;rounded=0;orthogonalLoop=1;jettySize=auto;html=1;" parent="1" source="zSWxMQrpxyv_SVmGaGA--104" target="zSWxMQrpxyv_SVmGaGA--65" edge="1">
          <mxGeometry relative="1" as="geometry">
            <Array as="points">
              <mxPoint x="350" y="260" />
            </Array>
          </mxGeometry>
        </mxCell>
        <mxCell id="zSWxMQrpxyv_SVmGaGA--106" style="edgeStyle=orthogonalEdgeStyle;rounded=0;orthogonalLoop=1;jettySize=auto;html=1;exitX=1;exitY=0.5;exitDx=0;exitDy=0;" parent="1" source="zSWxMQrpxyv_SVmGaGA--104" target="zSWxMQrpxyv_SVmGaGA--91" edge="1">
          <mxGeometry relative="1" as="geometry" />
        </mxCell>
        <mxCell id="zSWxMQrpxyv_SVmGaGA--104" value="SL1" style="rounded=1;whiteSpace=wrap;html=1;glass=0;strokeColor=#82b366;strokeWidth=2;fillColor=#d5e8d4;" parent="1" vertex="1">
          <mxGeometry x="315" y="209" width="85" height="41" as="geometry" />
        </mxCell>
        <mxCell id="zSWxMQrpxyv_SVmGaGA--110" style="edgeStyle=orthogonalEdgeStyle;rounded=0;orthogonalLoop=1;jettySize=auto;html=1;exitX=0;exitY=0.5;exitDx=0;exitDy=0;entryX=0.607;entryY=0.929;entryDx=0;entryDy=0;entryPerimeter=0;" parent="1" source="zSWxMQrpxyv_SVmGaGA--109" target="zSWxMQrpxyv_SVmGaGA--52" edge="1">
          <mxGeometry relative="1" as="geometry" />
        </mxCell>
        <mxCell id="zSWxMQrpxyv_SVmGaGA--111" style="edgeStyle=orthogonalEdgeStyle;rounded=0;orthogonalLoop=1;jettySize=auto;html=1;exitX=1;exitY=0.5;exitDx=0;exitDy=0;entryX=0.738;entryY=0.842;entryDx=0;entryDy=0;entryPerimeter=0;" parent="1" source="zSWxMQrpxyv_SVmGaGA--109" target="zSWxMQrpxyv_SVmGaGA--80" edge="1">
          <mxGeometry relative="1" as="geometry">
            <mxPoint x="490" y="400" as="targetPoint" />
          </mxGeometry>
        </mxCell>
        <mxCell id="zSWxMQrpxyv_SVmGaGA--109" value="Absence&lt;br&gt;Applied" style="rounded=1;whiteSpace=wrap;html=1;glass=0;strokeColor=#b85450;strokeWidth=2;fillColor=#f8cecc;" parent="1" vertex="1">
          <mxGeometry x="320" y="390" width="85" height="41" as="geometry" />
        </mxCell>
        <mxCell id="zSWxMQrpxyv_SVmGaGA--117" value="Cross-Functional Flowchart" style="shape=table;childLayout=tableLayout;rowLines=0;columnLines=0;startSize=40;html=1;whiteSpace=wrap;collapsible=0;recursiveResize=0;expand=0;pointerEvents=0;fontStyle=1;align=center;rounded=0;glass=0;strokeColor=#666666;strokeWidth=2;fillColor=#f5f5f5;fillStyle=solid;fontColor=#333333;" parent="1" vertex="1">
          <mxGeometry x="700" y="-170" width="1080" height="571.9999999999998" as="geometry" />
        </mxCell>
        <mxCell id="zSWxMQrpxyv_SVmGaGA--118" value="Applicant" style="swimlane;horizontal=0;points=[[0,0.5],[1,0.5]];portConstraint=eastwest;startSize=40;html=1;whiteSpace=wrap;collapsible=0;recursiveResize=0;expand=0;pointerEvents=0;fontStyle=1;rounded=0;glass=0;strokeColor=#666666;strokeWidth=2;fillColor=#f5f5f5;fontColor=#333333;" parent="zSWxMQrpxyv_SVmGaGA--117" vertex="1">
          <mxGeometry y="40" width="1080" height="172" as="geometry" />
        </mxCell>
        <mxCell id="zSWxMQrpxyv_SVmGaGA--119" value="Pending" style="swimlane;connectable=0;startSize=40;html=1;whiteSpace=wrap;collapsible=0;recursiveResize=0;expand=0;pointerEvents=0;rounded=0;glass=0;strokeColor=#82b366;strokeWidth=2;fillColor=#d5e8d4;" parent="zSWxMQrpxyv_SVmGaGA--118" vertex="1">
          <mxGeometry x="40" width="260" height="172" as="geometry">
            <mxRectangle width="260" height="172" as="alternateBounds" />
          </mxGeometry>
        </mxCell>
        <mxCell id="zSWxMQrpxyv_SVmGaGA--146" style="edgeStyle=orthogonalEdgeStyle;rounded=0;orthogonalLoop=1;jettySize=auto;html=1;exitX=1;exitY=0.5;exitDx=0;exitDy=0;exitPerimeter=0;fontColor=#FF0505;dashed=1;curved=1;endArrow=open;endFill=0;" parent="zSWxMQrpxyv_SVmGaGA--119" source="zSWxMQrpxyv_SVmGaGA--135" target="zSWxMQrpxyv_SVmGaGA--139" edge="1">
          <mxGeometry relative="1" as="geometry" />
        </mxCell>
        <mxCell id="zSWxMQrpxyv_SVmGaGA--166" value="Submitted" style="edgeLabel;html=1;align=center;verticalAlign=middle;resizable=0;points=[];fontColor=#FF0505;" parent="zSWxMQrpxyv_SVmGaGA--146" vertex="1" connectable="0">
          <mxGeometry x="-0.0503" y="-2" relative="1" as="geometry">
            <mxPoint as="offset" />
          </mxGeometry>
        </mxCell>
        <mxCell id="zSWxMQrpxyv_SVmGaGA--135" value="Apply SL " style="points=[[0.25,0,0],[0.5,0,0],[0.75,0,0],[1,0.25,0],[1,0.5,0],[1,0.75,0],[0.75,1,0],[0.5,1,0],[0.25,1,0],[0,0.75,0],[0,0.5,0],[0,0.25,0]];shape=mxgraph.bpmn.task;whiteSpace=wrap;rectStyle=rounded;size=10;taskMarker=abstract;rounded=0;glass=0;fontColor=#FF0505;strokeColor=#000000;strokeWidth=2;fillColor=none;" parent="zSWxMQrpxyv_SVmGaGA--119" vertex="1">
          <mxGeometry x="10" y="50" width="80" height="43" as="geometry" />
        </mxCell>
        <mxCell id="zSWxMQrpxyv_SVmGaGA--139" value="Pending" style="shape=mxgraph.bpmn.data;labelPosition=center;verticalLabelPosition=bottom;align=center;verticalAlign=top;whiteSpace=wrap;size=15;html=1;rounded=0;glass=0;strokeColor=#82b366;strokeWidth=2;fillColor=#d5e8d4;" parent="zSWxMQrpxyv_SVmGaGA--119" vertex="1">
          <mxGeometry x="150" y="70" width="40" height="60" as="geometry" />
        </mxCell>
        <mxCell id="zSWxMQrpxyv_SVmGaGA--120" value="Approved / Recommended" style="swimlane;connectable=0;startSize=40;html=1;whiteSpace=wrap;collapsible=0;recursiveResize=0;expand=0;pointerEvents=0;rounded=0;glass=0;strokeColor=#82b366;strokeWidth=2;fillColor=#d5e8d4;" parent="zSWxMQrpxyv_SVmGaGA--118" vertex="1">
          <mxGeometry x="300" width="260" height="172" as="geometry">
            <mxRectangle width="260" height="172" as="alternateBounds" />
          </mxGeometry>
        </mxCell>
        <mxCell id="zSWxMQrpxyv_SVmGaGA--176" value="Widthdraw SL" style="points=[[0.25,0,0],[0.5,0,0],[0.75,0,0],[1,0.25,0],[1,0.5,0],[1,0.75,0],[0.75,1,0],[0.5,1,0],[0.25,1,0],[0,0.75,0],[0,0.5,0],[0,0.25,0]];shape=mxgraph.bpmn.task;whiteSpace=wrap;rectStyle=rounded;size=10;taskMarker=abstract;rounded=0;glass=0;fontColor=#FF0505;strokeColor=#000000;strokeWidth=2;fillColor=default;" parent="zSWxMQrpxyv_SVmGaGA--120" vertex="1">
          <mxGeometry x="-30" y="50" width="80" height="43" as="geometry" />
        </mxCell>
        <mxCell id="zSWxMQrpxyv_SVmGaGA--121" value="Recorded" style="swimlane;connectable=0;startSize=40;html=1;whiteSpace=wrap;collapsible=0;recursiveResize=0;expand=0;pointerEvents=0;rounded=0;glass=0;strokeColor=#82b366;strokeWidth=2;fillColor=#d5e8d4;" parent="zSWxMQrpxyv_SVmGaGA--118" vertex="1">
          <mxGeometry x="560" width="260" height="172" as="geometry">
            <mxRectangle width="260" height="172" as="alternateBounds" />
          </mxGeometry>
        </mxCell>
        <mxCell id="zSWxMQrpxyv_SVmGaGA--130" style="swimlane;connectable=0;startSize=40;html=1;whiteSpace=wrap;collapsible=0;recursiveResize=0;expand=0;pointerEvents=0;rounded=0;glass=0;strokeColor=#b85450;strokeWidth=2;fillColor=#f8cecc;" parent="zSWxMQrpxyv_SVmGaGA--118" vertex="1">
          <mxGeometry x="820" width="260" height="172" as="geometry">
            <mxRectangle width="260" height="172" as="alternateBounds" />
          </mxGeometry>
        </mxCell>
        <mxCell id="zSWxMQrpxyv_SVmGaGA--133" value="&lt;b&gt;&lt;font color=&quot;#ff0505&quot;&gt;Rejected/Deleted/Cancelled/Withdrawn&lt;/font&gt;&lt;/b&gt;" style="text;html=1;align=center;verticalAlign=middle;resizable=0;points=[];autosize=1;strokeColor=none;fillColor=none;" parent="zSWxMQrpxyv_SVmGaGA--130" vertex="1">
          <mxGeometry x="10" y="7" width="240" height="30" as="geometry" />
        </mxCell>
        <mxCell id="zSWxMQrpxyv_SVmGaGA--175" value="Widthdrawn" style="shape=mxgraph.bpmn.data;labelPosition=center;verticalLabelPosition=bottom;align=center;verticalAlign=top;whiteSpace=wrap;size=15;html=1;rounded=0;glass=0;strokeColor=#b85450;strokeWidth=2;fillColor=#f8cecc;" parent="zSWxMQrpxyv_SVmGaGA--130" vertex="1">
          <mxGeometry x="60" y="63" width="40" height="60" as="geometry" />
        </mxCell>
        <mxCell id="zSWxMQrpxyv_SVmGaGA--178" style="edgeStyle=orthogonalEdgeStyle;curved=1;rounded=0;orthogonalLoop=1;jettySize=auto;html=1;exitX=0;exitY=0;exitDx=40;exitDy=37.5;exitPerimeter=0;entryX=0;entryY=0.5;entryDx=0;entryDy=0;entryPerimeter=0;dashed=1;fontColor=#FF0505;endArrow=open;endFill=0;" parent="zSWxMQrpxyv_SVmGaGA--118" source="zSWxMQrpxyv_SVmGaGA--139" target="zSWxMQrpxyv_SVmGaGA--176" edge="1">
          <mxGeometry relative="1" as="geometry" />
        </mxCell>
        <mxCell id="zSWxMQrpxyv_SVmGaGA--181" style="edgeStyle=orthogonalEdgeStyle;curved=1;rounded=0;orthogonalLoop=1;jettySize=auto;html=1;exitX=1;exitY=0.25;exitDx=0;exitDy=0;exitPerimeter=0;dashed=1;fontColor=#FF0505;endArrow=open;endFill=0;" parent="zSWxMQrpxyv_SVmGaGA--118" source="zSWxMQrpxyv_SVmGaGA--176" edge="1">
          <mxGeometry relative="1" as="geometry">
            <mxPoint x="880" y="102" as="targetPoint" />
            <Array as="points">
              <mxPoint x="840" y="61" />
              <mxPoint x="840" y="102" />
            </Array>
          </mxGeometry>
        </mxCell>
        <mxCell id="zSWxMQrpxyv_SVmGaGA--182" value="Withdrawn" style="edgeLabel;html=1;align=center;verticalAlign=middle;resizable=0;points=[];fontColor=#FF0505;" parent="zSWxMQrpxyv_SVmGaGA--181" vertex="1" connectable="0">
          <mxGeometry x="0.3802" y="-9" relative="1" as="geometry">
            <mxPoint as="offset" />
          </mxGeometry>
        </mxCell>
        <mxCell id="zSWxMQrpxyv_SVmGaGA--122" value="Approver" style="swimlane;horizontal=0;points=[[0,0.5],[1,0.5]];portConstraint=eastwest;startSize=40;html=1;whiteSpace=wrap;collapsible=0;recursiveResize=0;expand=0;pointerEvents=0;rounded=0;glass=0;strokeColor=#666666;strokeWidth=2;fillColor=#f5f5f5;fontColor=#333333;" parent="zSWxMQrpxyv_SVmGaGA--117" vertex="1">
          <mxGeometry y="212" width="1080" height="188" as="geometry" />
        </mxCell>
        <mxCell id="zSWxMQrpxyv_SVmGaGA--123" value="" style="swimlane;connectable=0;startSize=0;html=1;whiteSpace=wrap;collapsible=0;recursiveResize=0;expand=0;pointerEvents=0;rounded=0;glass=0;strokeColor=#82b366;strokeWidth=2;fillColor=#d5e8d4;" parent="zSWxMQrpxyv_SVmGaGA--122" vertex="1">
          <mxGeometry x="40" width="260" height="188" as="geometry">
            <mxRectangle width="260" height="188" as="alternateBounds" />
          </mxGeometry>
        </mxCell>
        <mxCell id="zSWxMQrpxyv_SVmGaGA--136" value="Recommend SL" style="points=[[0.25,0,0],[0.5,0,0],[0.75,0,0],[1,0.25,0],[1,0.5,0],[1,0.75,0],[0.75,1,0],[0.5,1,0],[0.25,1,0],[0,0.75,0],[0,0.5,0],[0,0.25,0]];shape=mxgraph.bpmn.task;whiteSpace=wrap;rectStyle=rounded;size=10;taskMarker=abstract;rounded=0;glass=0;fontColor=#FF0505;strokeColor=#000000;strokeWidth=2;fillColor=none;" parent="zSWxMQrpxyv_SVmGaGA--123" vertex="1">
          <mxGeometry x="30" y="38" width="80" height="43" as="geometry" />
        </mxCell>
        <mxCell id="zSWxMQrpxyv_SVmGaGA--137" value="Approve&#xa;SL" style="points=[[0.25,0,0],[0.5,0,0],[0.75,0,0],[1,0.25,0],[1,0.5,0],[1,0.75,0],[0.75,1,0],[0.5,1,0],[0.25,1,0],[0,0.75,0],[0,0.5,0],[0,0.25,0]];shape=mxgraph.bpmn.task;whiteSpace=wrap;rectStyle=rounded;size=10;taskMarker=abstract;rounded=0;glass=0;fontColor=#FF0505;strokeColor=#000000;strokeWidth=2;fillColor=none;" parent="zSWxMQrpxyv_SVmGaGA--123" vertex="1">
          <mxGeometry x="150" y="98" width="80" height="43" as="geometry" />
        </mxCell>
        <mxCell id="zSWxMQrpxyv_SVmGaGA--143" style="edgeStyle=orthogonalEdgeStyle;rounded=0;orthogonalLoop=1;jettySize=auto;html=1;exitX=0.5;exitY=1;exitDx=0;exitDy=0;exitPerimeter=0;fontColor=#FF0505;entryX=0;entryY=0.5;entryDx=0;entryDy=0;entryPerimeter=0;" parent="zSWxMQrpxyv_SVmGaGA--123" source="zSWxMQrpxyv_SVmGaGA--136" target="zSWxMQrpxyv_SVmGaGA--137" edge="1">
          <mxGeometry relative="1" as="geometry">
            <mxPoint x="70" y="138" as="targetPoint" />
          </mxGeometry>
        </mxCell>
        <mxCell id="zSWxMQrpxyv_SVmGaGA--124" value="" style="swimlane;connectable=0;startSize=0;html=1;whiteSpace=wrap;collapsible=0;recursiveResize=0;expand=0;pointerEvents=0;rounded=0;glass=0;strokeColor=#82b366;strokeWidth=2;fillColor=#d5e8d4;" parent="zSWxMQrpxyv_SVmGaGA--122" vertex="1">
          <mxGeometry x="300" width="260" height="188" as="geometry">
            <mxRectangle width="260" height="188" as="alternateBounds" />
          </mxGeometry>
        </mxCell>
        <mxCell id="zSWxMQrpxyv_SVmGaGA--145" value="Recommended&lt;br&gt;" style="shape=mxgraph.bpmn.data;labelPosition=center;verticalLabelPosition=bottom;align=center;verticalAlign=top;whiteSpace=wrap;size=15;html=1;rounded=0;glass=0;strokeColor=#82b366;strokeWidth=2;fillColor=#d5e8d4;" parent="zSWxMQrpxyv_SVmGaGA--124" vertex="1">
          <mxGeometry x="20" y="8" width="40" height="60" as="geometry" />
        </mxCell>
        <mxCell id="zSWxMQrpxyv_SVmGaGA--157" value="Approved" style="shape=mxgraph.bpmn.data;labelPosition=center;verticalLabelPosition=bottom;align=center;verticalAlign=top;whiteSpace=wrap;size=15;html=1;rounded=0;glass=0;strokeColor=#82b366;strokeWidth=2;fillColor=#d5e8d4;" parent="zSWxMQrpxyv_SVmGaGA--124" vertex="1">
          <mxGeometry x="170" y="108" width="40" height="60" as="geometry" />
        </mxCell>
        <mxCell id="zSWxMQrpxyv_SVmGaGA--156" style="edgeStyle=orthogonalEdgeStyle;curved=1;rounded=0;orthogonalLoop=1;jettySize=auto;html=1;dashed=1;fontColor=#FF0505;endArrow=open;endFill=0;" parent="zSWxMQrpxyv_SVmGaGA--124" source="zSWxMQrpxyv_SVmGaGA--157" edge="1">
          <mxGeometry relative="1" as="geometry">
            <mxPoint x="139.19999999999982" y="150.98000000000002" as="sourcePoint" />
            <mxPoint x="110" y="216" as="targetPoint" />
            <Array as="points">
              <mxPoint x="110" y="141" />
            </Array>
          </mxGeometry>
        </mxCell>
        <mxCell id="zSWxMQrpxyv_SVmGaGA--164" value="Wait for recording" style="edgeLabel;html=1;align=center;verticalAlign=middle;resizable=0;points=[];fontColor=#FF0505;" parent="zSWxMQrpxyv_SVmGaGA--156" vertex="1" connectable="0">
          <mxGeometry x="0.337" y="3" relative="1" as="geometry">
            <mxPoint as="offset" />
          </mxGeometry>
        </mxCell>
        <mxCell id="zSWxMQrpxyv_SVmGaGA--125" value="" style="swimlane;connectable=0;startSize=0;html=1;whiteSpace=wrap;collapsible=0;recursiveResize=0;expand=0;pointerEvents=0;rounded=0;glass=0;strokeColor=#82b366;strokeWidth=2;fillColor=#d5e8d4;" parent="zSWxMQrpxyv_SVmGaGA--122" vertex="1">
          <mxGeometry x="560" width="260" height="188" as="geometry">
            <mxRectangle width="260" height="188" as="alternateBounds" />
          </mxGeometry>
        </mxCell>
        <mxCell id="zSWxMQrpxyv_SVmGaGA--131" style="swimlane;connectable=0;startSize=0;html=1;whiteSpace=wrap;collapsible=0;recursiveResize=0;expand=0;pointerEvents=0;rounded=0;glass=0;strokeColor=#FF0505;strokeWidth=2;fillColor=none;" parent="zSWxMQrpxyv_SVmGaGA--122" vertex="1">
          <mxGeometry x="820" width="260" height="188" as="geometry">
            <mxRectangle width="260" height="188" as="alternateBounds" />
          </mxGeometry>
        </mxCell>
        <mxCell id="zSWxMQrpxyv_SVmGaGA--167" value="Not recommended&lt;br&gt;" style="shape=mxgraph.bpmn.data;labelPosition=center;verticalLabelPosition=bottom;align=center;verticalAlign=top;whiteSpace=wrap;size=15;html=1;rounded=0;glass=0;strokeColor=#b85450;strokeWidth=2;fillColor=#f8cecc;" parent="zSWxMQrpxyv_SVmGaGA--131" vertex="1">
          <mxGeometry x="30" y="8" width="40" height="60" as="geometry" />
        </mxCell>
        <mxCell id="zSWxMQrpxyv_SVmGaGA--171" value="not approved" style="shape=mxgraph.bpmn.data;labelPosition=center;verticalLabelPosition=bottom;align=center;verticalAlign=top;whiteSpace=wrap;size=15;html=1;rounded=0;glass=0;strokeColor=#b85450;strokeWidth=2;fillColor=#f8cecc;" parent="zSWxMQrpxyv_SVmGaGA--131" vertex="1">
          <mxGeometry x="110" y="81" width="40" height="60" as="geometry" />
        </mxCell>
        <mxCell id="zSWxMQrpxyv_SVmGaGA--147" style="edgeStyle=orthogonalEdgeStyle;curved=1;rounded=0;orthogonalLoop=1;jettySize=auto;html=1;exitX=1;exitY=0.5;exitDx=0;exitDy=0;exitPerimeter=0;dashed=1;fontColor=#FF0505;endArrow=open;endFill=0;" parent="zSWxMQrpxyv_SVmGaGA--122" source="zSWxMQrpxyv_SVmGaGA--136" target="zSWxMQrpxyv_SVmGaGA--145" edge="1">
          <mxGeometry relative="1" as="geometry">
            <Array as="points">
              <mxPoint x="240" y="59" />
              <mxPoint x="240" y="18" />
            </Array>
          </mxGeometry>
        </mxCell>
        <mxCell id="zSWxMQrpxyv_SVmGaGA--160" value="Recommended" style="edgeLabel;html=1;align=center;verticalAlign=middle;resizable=0;points=[];fontColor=#FF0505;" parent="zSWxMQrpxyv_SVmGaGA--147" vertex="1" connectable="0">
          <mxGeometry x="-0.0782" y="5" relative="1" as="geometry">
            <mxPoint x="-15" y="-10" as="offset" />
          </mxGeometry>
        </mxCell>
        <mxCell id="zSWxMQrpxyv_SVmGaGA--151" style="edgeStyle=orthogonalEdgeStyle;curved=1;rounded=0;orthogonalLoop=1;jettySize=auto;html=1;exitX=0;exitY=0.5;exitDx=0;exitDy=0;exitPerimeter=0;entryX=0.617;entryY=-0.002;entryDx=0;entryDy=0;entryPerimeter=0;dashed=1;fontColor=#FF0505;endArrow=open;endFill=0;" parent="zSWxMQrpxyv_SVmGaGA--122" source="zSWxMQrpxyv_SVmGaGA--145" target="zSWxMQrpxyv_SVmGaGA--137" edge="1">
          <mxGeometry relative="1" as="geometry" />
        </mxCell>
        <mxCell id="zSWxMQrpxyv_SVmGaGA--161" value="Wait for approval" style="edgeLabel;html=1;align=center;verticalAlign=middle;resizable=0;points=[];fontColor=#FF0505;" parent="zSWxMQrpxyv_SVmGaGA--151" vertex="1" connectable="0">
          <mxGeometry x="0.6076" y="6" relative="1" as="geometry">
            <mxPoint as="offset" />
          </mxGeometry>
        </mxCell>
        <mxCell id="zSWxMQrpxyv_SVmGaGA--168" style="edgeStyle=orthogonalEdgeStyle;curved=1;rounded=0;orthogonalLoop=1;jettySize=auto;html=1;exitX=1;exitY=0.25;exitDx=0;exitDy=0;exitPerimeter=0;dashed=1;fontColor=#FF0505;endArrow=open;endFill=0;" parent="zSWxMQrpxyv_SVmGaGA--122" source="zSWxMQrpxyv_SVmGaGA--136" target="zSWxMQrpxyv_SVmGaGA--167" edge="1">
          <mxGeometry relative="1" as="geometry">
            <mxPoint x="520" y="-52" as="targetPoint" />
            <Array as="points">
              <mxPoint x="150" y="-12" />
              <mxPoint x="500" y="-12" />
              <mxPoint x="500" y="-42" />
              <mxPoint x="870" y="-42" />
            </Array>
          </mxGeometry>
        </mxCell>
        <mxCell id="zSWxMQrpxyv_SVmGaGA--169" value="Not recommended" style="edgeLabel;html=1;align=center;verticalAlign=middle;resizable=0;points=[];fontColor=#FF0505;" parent="zSWxMQrpxyv_SVmGaGA--168" vertex="1" connectable="0">
          <mxGeometry x="0.3925" y="1" relative="1" as="geometry">
            <mxPoint as="offset" />
          </mxGeometry>
        </mxCell>
        <mxCell id="zSWxMQrpxyv_SVmGaGA--170" style="edgeStyle=orthogonalEdgeStyle;curved=1;rounded=0;orthogonalLoop=1;jettySize=auto;html=1;exitX=1;exitY=0.25;exitDx=0;exitDy=0;exitPerimeter=0;dashed=1;fontColor=#FF0505;endArrow=open;endFill=0;" parent="zSWxMQrpxyv_SVmGaGA--122" source="zSWxMQrpxyv_SVmGaGA--137" target="zSWxMQrpxyv_SVmGaGA--171" edge="1">
          <mxGeometry relative="1" as="geometry">
            <mxPoint x="880" y="118" as="targetPoint" />
            <Array as="points">
              <mxPoint x="270" y="88" />
              <mxPoint x="590" y="88" />
              <mxPoint x="590" y="128" />
            </Array>
          </mxGeometry>
        </mxCell>
        <mxCell id="zSWxMQrpxyv_SVmGaGA--174" value="Rejected" style="edgeLabel;html=1;align=center;verticalAlign=middle;resizable=0;points=[];fontColor=#FF0505;" parent="zSWxMQrpxyv_SVmGaGA--170" vertex="1" connectable="0">
          <mxGeometry x="0.0629" y="9" relative="1" as="geometry">
            <mxPoint as="offset" />
          </mxGeometry>
        </mxCell>
        <mxCell id="zSWxMQrpxyv_SVmGaGA--155" style="edgeStyle=orthogonalEdgeStyle;curved=1;rounded=0;orthogonalLoop=1;jettySize=auto;html=1;exitX=1;exitY=0.5;exitDx=0;exitDy=0;exitPerimeter=0;dashed=1;fontColor=#FF0505;endArrow=open;endFill=0;entryX=0.017;entryY=0.283;entryDx=0;entryDy=0;entryPerimeter=0;" parent="zSWxMQrpxyv_SVmGaGA--122" source="zSWxMQrpxyv_SVmGaGA--137" target="zSWxMQrpxyv_SVmGaGA--157" edge="1">
          <mxGeometry relative="1" as="geometry">
            <mxPoint x="480" y="136.51724137931046" as="targetPoint" />
          </mxGeometry>
        </mxCell>
        <mxCell id="zSWxMQrpxyv_SVmGaGA--163" value="Approved" style="edgeLabel;html=1;align=center;verticalAlign=middle;resizable=0;points=[];fontColor=#FF0505;" parent="zSWxMQrpxyv_SVmGaGA--155" vertex="1" connectable="0">
          <mxGeometry x="0.1134" relative="1" as="geometry">
            <mxPoint as="offset" />
          </mxGeometry>
        </mxCell>
        <mxCell id="zSWxMQrpxyv_SVmGaGA--126" value="Admin" style="swimlane;horizontal=0;points=[[0,0.5],[1,0.5]];portConstraint=eastwest;startSize=40;html=1;whiteSpace=wrap;collapsible=0;recursiveResize=0;expand=0;pointerEvents=0;rounded=0;glass=0;strokeColor=#666666;strokeWidth=2;fillColor=#f5f5f5;fontColor=#333333;" parent="zSWxMQrpxyv_SVmGaGA--117" vertex="1">
          <mxGeometry y="400" width="1080" height="172" as="geometry" />
        </mxCell>
        <mxCell id="zSWxMQrpxyv_SVmGaGA--127" value="" style="swimlane;connectable=0;startSize=0;html=1;whiteSpace=wrap;collapsible=0;recursiveResize=0;expand=0;pointerEvents=0;rounded=0;glass=0;strokeColor=#82b366;strokeWidth=2;fillColor=#d5e8d4;" parent="zSWxMQrpxyv_SVmGaGA--126" vertex="1">
          <mxGeometry x="40" width="260" height="172" as="geometry">
            <mxRectangle width="260" height="172" as="alternateBounds" />
          </mxGeometry>
        </mxCell>
        <mxCell id="zSWxMQrpxyv_SVmGaGA--128" value="" style="swimlane;connectable=0;startSize=0;html=1;whiteSpace=wrap;collapsible=0;recursiveResize=0;expand=0;pointerEvents=0;rounded=0;glass=0;strokeColor=#82b366;strokeWidth=2;fillColor=#d5e8d4;" parent="zSWxMQrpxyv_SVmGaGA--126" vertex="1">
          <mxGeometry x="300" width="260" height="172" as="geometry">
            <mxRectangle width="260" height="172" as="alternateBounds" />
          </mxGeometry>
        </mxCell>
        <mxCell id="zSWxMQrpxyv_SVmGaGA--138" value="Record SL" style="points=[[0.25,0,0],[0.5,0,0],[0.75,0,0],[1,0.25,0],[1,0.5,0],[1,0.75,0],[0.75,1,0],[0.5,1,0],[0.25,1,0],[0,0.75,0],[0,0.5,0],[0,0.25,0]];shape=mxgraph.bpmn.task;whiteSpace=wrap;rectStyle=rounded;size=10;taskMarker=abstract;rounded=0;glass=0;fontColor=#FF0505;strokeColor=#000000;strokeWidth=2;fillColor=none;" parent="zSWxMQrpxyv_SVmGaGA--128" vertex="1">
          <mxGeometry x="90" y="26" width="80" height="43" as="geometry" />
        </mxCell>
        <mxCell id="zSWxMQrpxyv_SVmGaGA--129" value="" style="swimlane;connectable=0;startSize=0;html=1;whiteSpace=wrap;collapsible=0;recursiveResize=0;expand=0;pointerEvents=0;rounded=0;glass=0;strokeColor=#82b366;strokeWidth=2;fillColor=#d5e8d4;" parent="zSWxMQrpxyv_SVmGaGA--126" vertex="1">
          <mxGeometry x="560" width="260" height="172" as="geometry">
            <mxRectangle width="260" height="172" as="alternateBounds" />
          </mxGeometry>
        </mxCell>
        <mxCell id="zSWxMQrpxyv_SVmGaGA--189" style="edgeStyle=orthogonalEdgeStyle;curved=1;rounded=0;orthogonalLoop=1;jettySize=auto;html=1;exitX=0;exitY=0.5;exitDx=0;exitDy=0;exitPerimeter=0;entryX=0.761;entryY=0.047;entryDx=0;entryDy=0;entryPerimeter=0;dashed=1;fontColor=#FF0505;endArrow=open;endFill=0;" parent="zSWxMQrpxyv_SVmGaGA--129" source="zSWxMQrpxyv_SVmGaGA--158" target="zSWxMQrpxyv_SVmGaGA--184" edge="1">
          <mxGeometry relative="1" as="geometry" />
        </mxCell>
        <mxCell id="zSWxMQrpxyv_SVmGaGA--158" value="Recorded" style="shape=mxgraph.bpmn.data;labelPosition=center;verticalLabelPosition=bottom;align=center;verticalAlign=top;whiteSpace=wrap;size=15;html=1;rounded=0;glass=0;strokeColor=#82b366;strokeWidth=2;fillColor=#d5e8d4;" parent="zSWxMQrpxyv_SVmGaGA--129" vertex="1">
          <mxGeometry x="50" y="20.5" width="40" height="60" as="geometry" />
        </mxCell>
        <mxCell id="zSWxMQrpxyv_SVmGaGA--184" value="Cancel SL" style="points=[[0.25,0,0],[0.5,0,0],[0.75,0,0],[1,0.25,0],[1,0.5,0],[1,0.75,0],[0.75,1,0],[0.5,1,0],[0.25,1,0],[0,0.75,0],[0,0.5,0],[0,0.25,0]];shape=mxgraph.bpmn.task;whiteSpace=wrap;rectStyle=rounded;size=10;taskMarker=abstract;rounded=0;glass=0;fontColor=#FF0505;strokeColor=#000000;strokeWidth=2;fillColor=default;" parent="zSWxMQrpxyv_SVmGaGA--129" vertex="1">
          <mxGeometry x="-40" y="110" width="80" height="43" as="geometry" />
        </mxCell>
        <mxCell id="zSWxMQrpxyv_SVmGaGA--132" style="swimlane;connectable=0;startSize=0;html=1;whiteSpace=wrap;collapsible=0;recursiveResize=0;expand=0;pointerEvents=0;rounded=0;glass=0;strokeColor=#FF0505;strokeWidth=2;fillColor=default;fillStyle=solid;" parent="zSWxMQrpxyv_SVmGaGA--126" vertex="1">
          <mxGeometry x="820" width="260" height="172" as="geometry">
            <mxRectangle width="260" height="172" as="alternateBounds" />
          </mxGeometry>
        </mxCell>
        <mxCell id="zSWxMQrpxyv_SVmGaGA--190" value="Cancelled" style="shape=mxgraph.bpmn.data;labelPosition=center;verticalLabelPosition=bottom;align=center;verticalAlign=top;whiteSpace=wrap;size=15;html=1;rounded=0;glass=0;strokeColor=#b85450;strokeWidth=2;fillColor=#f8cecc;" parent="zSWxMQrpxyv_SVmGaGA--132" vertex="1">
          <mxGeometry x="50" y="50" width="40" height="60" as="geometry" />
        </mxCell>
        <mxCell id="zSWxMQrpxyv_SVmGaGA--159" style="edgeStyle=orthogonalEdgeStyle;curved=1;rounded=0;orthogonalLoop=1;jettySize=auto;html=1;exitX=1;exitY=0.5;exitDx=0;exitDy=0;exitPerimeter=0;dashed=1;fontColor=#FF0505;endArrow=open;endFill=0;entryX=0.021;entryY=0.299;entryDx=0;entryDy=0;entryPerimeter=0;" parent="zSWxMQrpxyv_SVmGaGA--126" source="zSWxMQrpxyv_SVmGaGA--138" target="zSWxMQrpxyv_SVmGaGA--158" edge="1">
          <mxGeometry relative="1" as="geometry" />
        </mxCell>
        <mxCell id="zSWxMQrpxyv_SVmGaGA--165" value="Recorded" style="edgeLabel;html=1;align=center;verticalAlign=middle;resizable=0;points=[];fontColor=#FF0505;" parent="zSWxMQrpxyv_SVmGaGA--159" vertex="1" connectable="0">
          <mxGeometry x="-0.1388" y="-3" relative="1" as="geometry">
            <mxPoint as="offset" />
          </mxGeometry>
        </mxCell>
        <mxCell id="zSWxMQrpxyv_SVmGaGA--191" style="edgeStyle=orthogonalEdgeStyle;curved=1;rounded=0;orthogonalLoop=1;jettySize=auto;html=1;exitX=1;exitY=0.5;exitDx=0;exitDy=0;exitPerimeter=0;dashed=1;fontColor=#FF0505;endArrow=open;endFill=0;" parent="zSWxMQrpxyv_SVmGaGA--126" source="zSWxMQrpxyv_SVmGaGA--184" target="zSWxMQrpxyv_SVmGaGA--190" edge="1">
          <mxGeometry relative="1" as="geometry" />
        </mxCell>
        <mxCell id="zSWxMQrpxyv_SVmGaGA--192" value="Cancelled" style="edgeLabel;html=1;align=center;verticalAlign=middle;resizable=0;points=[];fontColor=#FF0505;" parent="zSWxMQrpxyv_SVmGaGA--191" vertex="1" connectable="0">
          <mxGeometry x="0.3846" y="-7" relative="1" as="geometry">
            <mxPoint as="offset" />
          </mxGeometry>
        </mxCell>
        <mxCell id="zSWxMQrpxyv_SVmGaGA--141" style="edgeStyle=orthogonalEdgeStyle;rounded=0;orthogonalLoop=1;jettySize=auto;html=1;exitX=0.5;exitY=1;exitDx=0;exitDy=0;exitPerimeter=0;fontColor=#FF0505;entryX=0.25;entryY=0;entryDx=0;entryDy=0;entryPerimeter=0;" parent="zSWxMQrpxyv_SVmGaGA--117" source="zSWxMQrpxyv_SVmGaGA--135" target="zSWxMQrpxyv_SVmGaGA--136" edge="1">
          <mxGeometry relative="1" as="geometry" />
        </mxCell>
        <mxCell id="zSWxMQrpxyv_SVmGaGA--144" style="edgeStyle=orthogonalEdgeStyle;rounded=0;orthogonalLoop=1;jettySize=auto;html=1;exitX=0.5;exitY=1;exitDx=0;exitDy=0;exitPerimeter=0;fontColor=#FF0505;entryX=0.008;entryY=0.572;entryDx=0;entryDy=0;entryPerimeter=0;" parent="zSWxMQrpxyv_SVmGaGA--117" source="zSWxMQrpxyv_SVmGaGA--137" target="zSWxMQrpxyv_SVmGaGA--138" edge="1">
          <mxGeometry relative="1" as="geometry">
            <mxPoint x="230.20000000000005" y="440" as="targetPoint" />
          </mxGeometry>
        </mxCell>
        <mxCell id="zSWxMQrpxyv_SVmGaGA--150" style="edgeStyle=orthogonalEdgeStyle;curved=1;rounded=0;orthogonalLoop=1;jettySize=auto;html=1;exitX=0;exitY=1;exitDx=0;exitDy=0;exitPerimeter=0;entryX=0.806;entryY=0.046;entryDx=0;entryDy=0;entryPerimeter=0;dashed=1;fontColor=#FF0505;endArrow=open;endFill=0;" parent="zSWxMQrpxyv_SVmGaGA--117" source="zSWxMQrpxyv_SVmGaGA--139" target="zSWxMQrpxyv_SVmGaGA--136" edge="1">
          <mxGeometry relative="1" as="geometry">
            <Array as="points">
              <mxPoint x="170" y="172" />
              <mxPoint x="150" y="172" />
              <mxPoint x="150" y="211" />
              <mxPoint x="135" y="211" />
            </Array>
          </mxGeometry>
        </mxCell>
        <mxCell id="zSWxMQrpxyv_SVmGaGA--162" value="Wait for &lt;br&gt;recommending" style="edgeLabel;html=1;align=center;verticalAlign=middle;resizable=0;points=[];fontColor=#FF0505;" parent="zSWxMQrpxyv_SVmGaGA--150" vertex="1" connectable="0">
          <mxGeometry x="-0.2305" relative="1" as="geometry">
            <mxPoint y="8" as="offset" />
          </mxGeometry>
        </mxCell>
        <mxCell id="zSWxMQrpxyv_SVmGaGA--179" style="edgeStyle=orthogonalEdgeStyle;curved=1;rounded=0;orthogonalLoop=1;jettySize=auto;html=1;exitX=0;exitY=0;exitDx=12.5;exitDy=0;exitPerimeter=0;dashed=1;fontColor=#FF0505;endArrow=open;endFill=0;" parent="zSWxMQrpxyv_SVmGaGA--117" source="zSWxMQrpxyv_SVmGaGA--145" target="zSWxMQrpxyv_SVmGaGA--176" edge="1">
          <mxGeometry relative="1" as="geometry" />
        </mxCell>
        <mxCell id="zSWxMQrpxyv_SVmGaGA--180" style="edgeStyle=orthogonalEdgeStyle;curved=1;rounded=0;orthogonalLoop=1;jettySize=auto;html=1;exitX=0;exitY=0;exitDx=12.5;exitDy=0;exitPerimeter=0;entryX=1;entryY=0.75;entryDx=0;entryDy=0;entryPerimeter=0;dashed=1;fontColor=#FF0505;endArrow=open;endFill=0;" parent="zSWxMQrpxyv_SVmGaGA--117" source="zSWxMQrpxyv_SVmGaGA--157" target="zSWxMQrpxyv_SVmGaGA--176" edge="1">
          <mxGeometry relative="1" as="geometry" />
        </mxCell>
        <mxCell id="zSWxMQrpxyv_SVmGaGA--186" style="edgeStyle=orthogonalEdgeStyle;curved=1;rounded=0;orthogonalLoop=1;jettySize=auto;html=1;exitX=0;exitY=0;exitDx=40;exitDy=37.5;exitPerimeter=0;dashed=1;fontColor=#FF0505;endArrow=open;endFill=0;" parent="zSWxMQrpxyv_SVmGaGA--117" source="zSWxMQrpxyv_SVmGaGA--157" target="zSWxMQrpxyv_SVmGaGA--184" edge="1">
          <mxGeometry relative="1" as="geometry">
            <Array as="points">
              <mxPoint x="540" y="358" />
            </Array>
          </mxGeometry>
        </mxCell>
        <mxCell id="zSWxMQrpxyv_SVmGaGA--194" value="" style="edgeStyle=elbowEdgeStyle;fontSize=12;html=1;endFill=0;startFill=0;endSize=6;startSize=6;endArrow=openThin;startArrow=openThin;rounded=0;fontColor=#FF0505;curved=1;strokeWidth=5;strokeColor=#166E16;" parent="1" edge="1">
          <mxGeometry width="160" relative="1" as="geometry">
            <mxPoint x="740" y="430" as="sourcePoint" />
            <mxPoint x="1520" y="430" as="targetPoint" />
          </mxGeometry>
        </mxCell>
        <mxCell id="zSWxMQrpxyv_SVmGaGA--195" value="&lt;font color=&quot;#146614&quot; style=&quot;font-size: 16px;&quot;&gt;Valid/Active Record&lt;/font&gt;" style="edgeLabel;html=1;align=center;verticalAlign=middle;resizable=0;points=[];fontColor=#33FF33;fontSize=16;" parent="zSWxMQrpxyv_SVmGaGA--194" vertex="1" connectable="0">
          <mxGeometry x="0.1385" y="-3" relative="1" as="geometry">
            <mxPoint x="-44" y="-3" as="offset" />
          </mxGeometry>
        </mxCell>
        <mxCell id="zSWxMQrpxyv_SVmGaGA--196" value="" style="edgeStyle=elbowEdgeStyle;fontSize=12;html=1;endFill=0;startFill=0;endSize=6;startSize=6;endArrow=openThin;startArrow=openThin;rounded=0;fontColor=#FF0505;curved=1;strokeWidth=5;strokeColor=#6E0D07;" parent="1" edge="1">
          <mxGeometry width="160" relative="1" as="geometry">
            <mxPoint x="1520" y="430" as="sourcePoint" />
            <mxPoint x="1780" y="430" as="targetPoint" />
          </mxGeometry>
        </mxCell>
        <mxCell id="zSWxMQrpxyv_SVmGaGA--197" value="&lt;font style=&quot;font-size: 17px;&quot;&gt;Invalid/Inactive Record&lt;/font&gt;" style="edgeLabel;html=1;align=center;verticalAlign=middle;resizable=0;points=[];fontColor=#FF0505;fontSize=17;" parent="zSWxMQrpxyv_SVmGaGA--196" vertex="1" connectable="0">
          <mxGeometry x="0.1385" y="-3" relative="1" as="geometry">
            <mxPoint x="-18" y="-3" as="offset" />
          </mxGeometry>
        </mxCell>
        <mxCell id="zSWxMQrpxyv_SVmGaGA--198" value="pm" style="rounded=0;whiteSpace=wrap;html=1;fillColor=#d5e8d4;strokeColor=#82b366;glass=0;" parent="1" vertex="1">
          <mxGeometry x="160" y="-70" width="40" height="40" as="geometry" />
        </mxCell>
        <mxCell id="zSWxMQrpxyv_SVmGaGA--199" value="am" style="rounded=0;whiteSpace=wrap;html=1;fillColor=#dae8fc;strokeColor=#6c8ebf;glass=0;" parent="1" vertex="1">
          <mxGeometry x="400" y="-110" width="40" height="40" as="geometry" />
        </mxCell>
        <mxCell id="zSWxMQrpxyv_SVmGaGA--201" value="am" style="whiteSpace=wrap;html=1;shape=mxgraph.basic.isocube;isoAngle=15;fillColor=#d5e8d4;strokeColor=#82b366;" parent="1" vertex="1">
          <mxGeometry x="80" y="292" width="70" height="40" as="geometry" />
        </mxCell>
        <mxCell id="zSWxMQrpxyv_SVmGaGA--204" value="" style="whiteSpace=wrap;html=1;shape=mxgraph.basic.isocube;isoAngle=15;fillColor=#d5e8d4;strokeColor=#82b366;" parent="1" vertex="1">
          <mxGeometry x="390" y="292" width="70" height="40" as="geometry" />
        </mxCell>
      </root>
    </mxGraphModel>
  </diagram>
</mxfile>
